<svg width="20" height="18" viewBox="0 0 20 18" fill="none" xmlns="http://www.w3.org/2000/svg">
<path d="M19.1666 1.50008C18.3686 2.06298 17.4851 2.4935 16.55 2.77508C16.0481 2.198 15.3811 1.78899 14.6392 1.60335C13.8973 1.41771 13.1162 1.46441 12.4017 1.73712C11.6872 2.00984 11.0737 2.49541 10.6441 3.12818C10.2146 3.76094 9.98973 4.51036 9.99998 5.27508V6.10841C8.53551 6.14639 7.08437 5.82159 5.77582 5.16295C4.46727 4.50431 3.34191 3.53228 2.49998 2.33341C2.49998 2.33341 -0.833354 9.83341 6.66665 13.1667C4.95042 14.3317 2.90594 14.9159 0.833313 14.8334C8.33331 19.0001 17.5 14.8334 17.5 5.25008C17.4992 5.01796 17.4769 4.78641 17.4333 4.55841C18.2838 3.71966 18.884 2.66067 19.1666 1.50008V1.50008Z" stroke="white" stroke-width="2" stroke-linecap="round" stroke-linejoin="round"/>
</svg>
